<svg width="389" height="90" viewBox="0 0 389 90" fill="none" xmlns="http://www.w3.org/2000/svg">
<path d="M43 0L87 43V71.5L29.5 14L43 0Z" fill="#B16C28"/>
<path d="M21.5 22.5L71.5 71.5H43L21.5 51.5L0 71.5V43L21.5 22.5Z" fill="#C98C51"/>
<path d="M121.868 14.216C126.184 14.216 129.876 14.944 132.944 16.4C136.012 17.856 138.352 19.936 139.964 22.64C141.628 25.344 142.46 28.62 142.46 32.468C142.46 34.704 142.096 36.94 141.368 39.176C140.692 41.412 139.6 43.44 138.092 45.26C136.636 47.08 134.66 48.562 132.164 49.706C129.72 50.798 126.704 51.344 123.116 51.344H114.926V71H105.8V14.216H121.868ZM123.116 42.53C125.092 42.53 126.756 42.192 128.108 41.516C129.46 40.84 130.5 39.982 131.228 38.942C132.008 37.902 132.554 36.836 132.866 35.744C133.23 34.6 133.412 33.586 133.412 32.702C133.412 31.766 133.256 30.752 132.944 29.66C132.632 28.516 132.112 27.45 131.384 26.462C130.656 25.422 129.642 24.59 128.342 23.966C127.042 23.29 125.378 22.952 123.35 22.952H114.926V42.53H123.116ZM159.568 38.006L160.348 47.366L160.036 46.04C160.972 44.064 162.246 42.374 163.858 40.97C165.522 39.514 167.212 38.422 168.928 37.694C170.644 36.914 172.048 36.524 173.14 36.524L172.75 45.26C170.254 45.052 168.07 45.52 166.198 46.664C164.378 47.756 162.948 49.212 161.908 51.032C160.92 52.852 160.426 54.776 160.426 56.804V71H151.69V38.006H159.568ZM196.391 71.858C192.491 71.858 189.163 71.104 186.407 69.596C183.651 68.088 181.545 66.008 180.089 63.356C178.633 60.652 177.905 57.61 177.905 54.23C177.905 50.902 178.737 47.912 180.401 45.26C182.065 42.608 184.301 40.502 187.109 38.942C189.969 37.33 193.115 36.524 196.547 36.524C201.071 36.524 204.789 37.85 207.701 40.502C210.665 43.102 212.641 46.794 213.629 51.578L187.031 60.548L185.003 55.634L205.751 48.224L203.957 49.238C203.385 47.678 202.449 46.326 201.149 45.182C199.901 44.038 198.133 43.466 195.845 43.466C194.025 43.466 192.413 43.908 191.009 44.792C189.605 45.624 188.487 46.82 187.655 48.38C186.875 49.888 186.485 51.682 186.485 53.762C186.485 55.894 186.927 57.766 187.811 59.378C188.695 60.99 189.891 62.238 191.399 63.122C192.907 63.954 194.623 64.37 196.547 64.37C197.899 64.37 199.199 64.136 200.447 63.668C201.695 63.2 202.865 62.576 203.957 61.796L207.935 68.27C206.219 69.362 204.321 70.246 202.241 70.922C200.213 71.546 198.263 71.858 196.391 71.858ZM232.131 71.702C229.635 71.702 227.243 71.26 224.955 70.376C222.719 69.492 220.821 68.192 219.261 66.476L223.005 61.562C224.461 62.966 225.891 64.006 227.295 64.682C228.751 65.306 230.129 65.618 231.429 65.618C232.417 65.618 233.301 65.514 234.081 65.306C234.913 65.046 235.563 64.656 236.031 64.136C236.551 63.616 236.811 62.914 236.811 62.03C236.811 60.99 236.447 60.184 235.719 59.612C234.991 58.988 234.055 58.494 232.911 58.13C231.767 57.714 230.571 57.324 229.323 56.96C226.463 56.076 224.331 54.776 222.927 53.06C221.523 51.344 220.821 49.368 220.821 47.132C220.821 45.416 221.263 43.778 222.147 42.218C223.031 40.606 224.383 39.28 226.203 38.24C228.023 37.2 230.311 36.68 233.067 36.68C235.563 36.68 237.721 36.966 239.541 37.538C241.413 38.058 243.155 38.968 244.767 40.268L241.413 45.494C240.477 44.61 239.359 43.934 238.059 43.466C236.811 42.946 235.667 42.66 234.627 42.608C233.691 42.556 232.859 42.686 232.131 42.998C231.403 43.258 230.805 43.648 230.337 44.168C229.921 44.688 229.713 45.286 229.713 45.962C229.661 47.002 229.999 47.834 230.727 48.458C231.507 49.082 232.495 49.576 233.691 49.94C234.887 50.304 236.083 50.694 237.279 51.11C238.891 51.578 240.321 52.228 241.569 53.06C242.817 53.892 243.779 54.906 244.455 56.102C245.183 57.246 245.547 58.676 245.547 60.392C245.547 62.368 245.053 64.24 244.065 66.008C243.077 67.724 241.595 69.102 239.619 70.142C237.643 71.182 235.147 71.702 232.131 71.702ZM258.327 23.498H267.141V38.006H275.721V44.87H267.141V71H258.327V44.87H252.711V38.006H258.327V23.498ZM284.305 38.006H293.041V71H284.305V38.006ZM283.915 26.228C283.915 24.876 284.435 23.758 285.475 22.874C286.567 21.99 287.737 21.548 288.985 21.548C290.233 21.548 291.351 21.99 292.339 22.874C293.379 23.758 293.899 24.876 293.899 26.228C293.899 27.58 293.379 28.698 292.339 29.582C291.351 30.414 290.233 30.83 288.985 30.83C287.737 30.83 286.567 30.388 285.475 29.504C284.435 28.62 283.915 27.528 283.915 26.228ZM321.482 87.458C318.778 87.458 316.464 87.146 314.54 86.522C312.616 85.898 310.9 85.066 309.392 84.026C307.936 83.038 306.558 81.998 305.258 80.906L310.406 74.9C311.914 76.304 313.5 77.474 315.164 78.41C316.88 79.346 318.934 79.814 321.326 79.814C323.458 79.814 325.304 79.45 326.864 78.722C328.476 77.994 329.724 76.98 330.608 75.68C331.492 74.38 331.96 72.82 332.012 71V62.81L332.558 64.448C331.674 66.476 330.062 68.218 327.722 69.674C325.382 71.13 322.47 71.858 318.986 71.858C315.97 71.858 313.188 71.104 310.64 69.596C308.092 68.036 306.064 65.93 304.556 63.278C303.048 60.626 302.294 57.636 302.294 54.308C302.294 50.876 303.074 47.834 304.634 45.182C306.246 42.478 308.352 40.372 310.952 38.864C313.604 37.304 316.412 36.524 319.376 36.524C322.288 36.524 324.862 37.044 327.098 38.084C329.386 39.124 331.102 40.424 332.246 41.984L331.778 43.232L332.714 38.006H340.748V71.156C340.748 74.224 339.916 76.98 338.252 79.424C336.64 81.92 334.378 83.87 331.466 85.274C328.606 86.73 325.278 87.458 321.482 87.458ZM311.108 54.074C311.108 56.05 311.55 57.844 312.434 59.456C313.37 61.068 314.618 62.342 316.178 63.278C317.79 64.214 319.584 64.682 321.56 64.682C323.276 64.682 324.81 64.396 326.162 63.824C327.566 63.252 328.762 62.446 329.75 61.406C330.79 60.366 331.544 59.144 332.012 57.74V50.564C331.544 49.16 330.79 47.964 329.75 46.976C328.762 45.936 327.566 45.13 326.162 44.558C324.81 43.986 323.276 43.7 321.56 43.7C319.584 43.7 317.79 44.142 316.178 45.026C314.618 45.91 313.37 47.132 312.434 48.692C311.55 50.252 311.108 52.046 311.108 54.074ZM368.539 71.858C364.639 71.858 361.311 71.104 358.555 69.596C355.799 68.088 353.693 66.008 352.237 63.356C350.781 60.652 350.053 57.61 350.053 54.23C350.053 50.902 350.885 47.912 352.549 45.26C354.213 42.608 356.449 40.502 359.257 38.942C362.117 37.33 365.263 36.524 368.695 36.524C373.219 36.524 376.937 37.85 379.849 40.502C382.813 43.102 384.789 46.794 385.777 51.578L359.179 60.548L357.151 55.634L377.899 48.224L376.105 49.238C375.533 47.678 374.597 46.326 373.297 45.182C372.049 44.038 370.281 43.466 367.993 43.466C366.173 43.466 364.561 43.908 363.157 44.792C361.753 45.624 360.635 46.82 359.803 48.38C359.023 49.888 358.633 51.682 358.633 53.762C358.633 55.894 359.075 57.766 359.959 59.378C360.843 60.99 362.039 62.238 363.547 63.122C365.055 63.954 366.771 64.37 368.695 64.37C370.047 64.37 371.347 64.136 372.595 63.668C373.843 63.2 375.013 62.576 376.105 61.796L380.083 68.27C378.367 69.362 376.469 70.246 374.389 70.922C372.361 71.546 370.411 71.858 368.539 71.858Z" fill="#C98C51"/>
</svg>
